<?xml version="1.0" encoding="UTF-8" standalone="no"?>
<!DOCTYPE svg PUBLIC "-//W3C//DTD SVG 1.1//EN" "http://www.w3.org/Graphics/SVG/1.1/DTD/svg11.dtd">
<svg xmlns="http://www.w3.org/2000/svg" xmlns:xlink="http://www.w3.org/1999/xlink" version="1.1" width="433.2472pt" height="127.14722pt" viewBox="0 0 433.2472 127.14722">
<g enable-background="new">
<symbol id="font_0_3">
<path d="M .63 .67700007 L .019000002 .67700007 L 0 .45200003 L .025000003 .45200003 C .039 .61300006 .054 .646 .20500002 .646 C .223 .646 .24900003 .646 .259 .64400008 C .28 .64000007 .28 .629 .28 .606 L .28 .079 C .28 .045 .28 .031000002 .17500001 .031000002 L .135 .031000002 L .135 0 C .17600002 .003 .278 .003 .324 .003 C .37 .003 .473 .003 .514 0 L .514 .031000002 L .47400005 .031000002 C .36900003 .031000002 .36900003 .045 .36900003 .079 L .36900003 .606 C .36900003 .62600007 .36900003 .64000007 .387 .64400008 C .398 .646 .425 .646 .444 .646 C .595 .646 .61 .61300006 .624 .45200003 L .64900007 .45200003 L .63 .67700007 Z "/>
</symbol>
<symbol id="font_0_1">
<path d="M .10300001 .078 C .10300001 .042000005 .101 .031000002 .024000004 .031000002 L 0 .031000002 L 0 0 L .577 0 L .619 .25800003 L .59400007 .25800003 C .56900009 .104 .54600009 .031000002 .374 .031000002 L .24100003 .031000002 C .194 .031000002 .192 .038000004 .192 .071 L .192 .33800004 L .28200004 .33800004 C .37900005 .33800004 .39000003 .30600003 .39000003 .22100002 L .41500003 .22100002 L .41500003 .48600004 L .39000003 .48600004 C .39000003 .4 .37900005 .36900003 .28200004 .36900003 L .192 .36900003 L .192 .609 C .192 .642 .194 .64900007 .24100003 .64900007 L .37000004 .64900007 C .52300009 .64900007 .55 .59400007 .56600007 .455 L .591 .455 L .563 .68 L 0 .68 L 0 .64900007 L .024000004 .64900007 C .101 .64900007 .10300001 .638 .10300001 .60200008 L .10300001 .078 Z "/>
</symbol>
<symbol id="font_0_4">
<path d="M .37800003 .386 L .51500007 .587 C .53700008 .619 .57100006 .651 .66 .652 L .66 .683 C .62100008 .68200007 .57400009 .68 .549 .68 C .50900009 .68 .46100004 .68 .42100004 .683 L .42100004 .652 C .46100004 .651 .48300005 .629 .48300005 .606 C .48300005 .596 .481 .59400007 .47400005 .583 L .36 .41400004 L .23100002 .60700008 C .22900002 .61 .224 .61800006 .224 .62200006 C .224 .634 .246 .651 .28900004 .652 L .28900004 .683 C .25400005 .68 .18100001 .68 .143 .68 C .112 .68 .05 .68100008 .013 .683 L .013 .652 L .032 .652 C .08700001 .652 .106000009 .64500007 .125 .61700007 L .30900003 .33900003 L .14500001 .097 C .131 .07700001 .100999999 .031000002 0 .031000002 L 0 0 C .036000004 .001 .07800001 .003 .111 .003 C .148 .003 .20300001 .003 .23900001 0 L .23900001 .031000002 C .193 .032 .176 .059000005 .176 .07700001 C .176 .086 .179 .09 .186 .101 L .32800005 .31100003 L .48600007 .072000008 C .48800005 .068 .49100007 .064 .49100007 .061000006 C .49100007 .049000004 .46900005 .032 .42600004 .031000002 L .42600004 0 C .46100004 .003 .53400006 .003 .572 .003 C .614 .003 .66 .002 .702 0 L .702 .031000002 L .683 .031000002 C .63100007 .031000002 .61 .036000004 .58900007 .067 L .37800003 .386 Z "/>
</symbol>
<use xlink:href="#font_0_3" transform="matrix(110.69555,0,0,-110.69555,17.82115,89.480548)" fill="#ffffff"/>
<use xlink:href="#font_0_1" transform="matrix(110.69555,0,0,-110.69555,78.98906,113.31388)" fill="#ffffff"/>
<use xlink:href="#font_0_4" transform="matrix(110.69555,0,0,-110.69555,139.49279,89.480548)" fill="#ffffff"/>
<symbol id="font_0_2">
<path d="M .19200002 .316 L .36100004 .316 C .48100005 .316 .589 .397 .589 .497 C .589 .595 .49000005 .683 .35300002 .683 L 0 .683 L 0 .652 L .024000004 .652 C .10100001 .652 .103000018 .64100006 .103000018 .605 L .103000018 .078 C .103000018 .042000005 .10100001 .031000002 .024000004 .031000002 L 0 .031000002 L 0 0 C .035 .003 .10900001 .003 .14700002 .003 C .18500002 .003 .26000003 .003 .29500003 0 L .29500003 .031000002 L .27100004 .031000002 C .19400002 .031000002 .19200002 .042000005 .19200002 .078 L .19200002 .316 M .18900001 .342 L .18900001 .61200007 C .18900001 .64500007 .19100002 .652 .238 .652 L .32700003 .652 C .48600004 .652 .48600004 .546 .48600004 .497 C .48600004 .45000003 .48600004 .342 .32700003 .342 L .18900001 .342 Z "/>
</symbol>
<symbol id="font_0_5">
<path d="M .08400001 .263 C .09 .41200004 .17400001 .43700005 .20800002 .43700005 C .31100003 .43700005 .321 .30200003 .321 .263 L .08400001 .263 M .083000008 .24200002 L .36200003 .24200002 C .38400004 .24200002 .38700003 .24200002 .38700003 .263 C .38700003 .36200003 .33300004 .45900003 .20800002 .45900003 C .09200001 .45900003 0 .35600005 0 .23100002 C 0 .097 .105000007 0 .22000002 0 C .342 0 .38700003 .111 .38700003 .13000001 C .38700003 .14000002 .379 .14200002 .374 .14200002 C .365 .14200002 .36300005 .136 .36100004 .128 C .326 .025000003 .236 .025000003 .22600001 .025000003 C .17600002 .025000003 .136 .055000005 .113000009 .092 C .083000008 .14000002 .083000008 .20600002 .083000008 .24200002 Z "/>
</symbol>
<symbol id="font_0_6">
<path d="M .07800001 .344 L .07800001 .076000008 C .07800001 .031000002 .067 .031000002 0 .031000002 L 0 0 C .035 .001 .08600001 .003 .113000009 .003 C .139 .003 .191 .001 .225 0 L .225 .031000002 C .158 .031000002 .147 .031000002 .147 .076000008 L .147 .26000003 C .147 .36400003 .218 .42000003 .282 .42000003 C .345 .42000003 .356 .36600004 .356 .30900003 L .356 .076000008 C .356 .031000002 .345 .031000002 .278 .031000002 L .278 0 C .31300003 .001 .36400003 .003 .391 .003 C .41700004 .003 .46900005 .001 .503 0 L .503 .031000002 C .451 .031000002 .42600004 .031000002 .425 .061000006 L .425 .252 C .425 .33800004 .425 .36900003 .39400003 .40500004 C .38000003 .42200003 .347 .44200004 .289 .44200004 C .216 .44200004 .169 .39900003 .141 .337 L .141 .44200004 L 0 .43100003 L 0 .4 C .07000001 .4 .07800001 .393 .07800001 .344 Z "/>
</symbol>
<use xlink:href="#font_0_2" transform="matrix(110.69555,0,0,-110.69555,240.33644,89.480548)" fill="#00e5ff"/>
<use xlink:href="#font_0_5" transform="matrix(110.69555,0,0,-110.69555,311.84577,90.6982)" fill="#00e5ff"/>
<use xlink:href="#font_0_6" transform="matrix(110.69555,0,0,-110.69555,361.43739,89.480548)" fill="#00e5ff"/>
</g>
</svg>
